<svg id="visual" viewBox="0 0 900 600" width="900" height="600" xmlns="http://www.w3.org/2000/svg" xmlns:xlink="http://www.w3.org/1999/xlink" version="1.1"><rect x="0" y="0" width="900" height="600" fill="#e3e3e3"></rect><defs><linearGradient id="grad1_0" x1="33.3%" y1="0%" x2="100%" y2="100%"><stop offset="20%" stop-color="#003f1e" stop-opacity="1"></stop><stop offset="80%" stop-color="#003f1e" stop-opacity="1"></stop></linearGradient></defs><defs><linearGradient id="grad1_1" x1="33.3%" y1="0%" x2="100%" y2="100%"><stop offset="20%" stop-color="#003f1e" stop-opacity="1"></stop><stop offset="80%" stop-color="#335e41" stop-opacity="1"></stop></linearGradient></defs><defs><linearGradient id="grad1_2" x1="33.3%" y1="0%" x2="100%" y2="100%"><stop offset="20%" stop-color="#5d7d66" stop-opacity="1"></stop><stop offset="80%" stop-color="#335e41" stop-opacity="1"></stop></linearGradient></defs><defs><linearGradient id="grad1_3" x1="33.3%" y1="0%" x2="100%" y2="100%"><stop offset="20%" stop-color="#5d7d66" stop-opacity="1"></stop><stop offset="80%" stop-color="#889e8e" stop-opacity="1"></stop></linearGradient></defs><defs><linearGradient id="grad1_4" x1="33.3%" y1="0%" x2="100%" y2="100%"><stop offset="20%" stop-color="#b5c0b7" stop-opacity="1"></stop><stop offset="80%" stop-color="#889e8e" stop-opacity="1"></stop></linearGradient></defs><defs><linearGradient id="grad1_5" x1="33.3%" y1="0%" x2="100%" y2="100%"><stop offset="20%" stop-color="#b5c0b7" stop-opacity="1"></stop><stop offset="80%" stop-color="#e3e3e3" stop-opacity="1"></stop></linearGradient></defs><defs><linearGradient id="grad2_0" x1="0%" y1="0%" x2="66.7%" y2="100%"><stop offset="20%" stop-color="#003f1e" stop-opacity="1"></stop><stop offset="80%" stop-color="#003f1e" stop-opacity="1"></stop></linearGradient></defs><defs><linearGradient id="grad2_1" x1="0%" y1="0%" x2="66.7%" y2="100%"><stop offset="20%" stop-color="#335e41" stop-opacity="1"></stop><stop offset="80%" stop-color="#003f1e" stop-opacity="1"></stop></linearGradient></defs><defs><linearGradient id="grad2_2" x1="0%" y1="0%" x2="66.7%" y2="100%"><stop offset="20%" stop-color="#335e41" stop-opacity="1"></stop><stop offset="80%" stop-color="#5d7d66" stop-opacity="1"></stop></linearGradient></defs><defs><linearGradient id="grad2_3" x1="0%" y1="0%" x2="66.7%" y2="100%"><stop offset="20%" stop-color="#889e8e" stop-opacity="1"></stop><stop offset="80%" stop-color="#5d7d66" stop-opacity="1"></stop></linearGradient></defs><defs><linearGradient id="grad2_4" x1="0%" y1="0%" x2="66.7%" y2="100%"><stop offset="20%" stop-color="#889e8e" stop-opacity="1"></stop><stop offset="80%" stop-color="#b5c0b7" stop-opacity="1"></stop></linearGradient></defs><defs><linearGradient id="grad2_5" x1="0%" y1="0%" x2="66.7%" y2="100%"><stop offset="20%" stop-color="#e3e3e3" stop-opacity="1"></stop><stop offset="80%" stop-color="#b5c0b7" stop-opacity="1"></stop></linearGradient></defs><g transform="translate(900, 0)"><path d="M0 270.4C-21.6 263 -43.1 255.5 -67.6 252.1C-92 248.7 -119.3 249.4 -135.2 234.2C-151.1 219 -155.6 187.9 -168.3 168.3C-181 148.7 -202 140.6 -218.2 126C-234.5 111.4 -246.1 90.2 -254 68.1C-262 46 -266.2 23 -270.4 0L0 0Z" fill="#ccd1cd"></path><path d="M0 225.3C-18 219.1 -35.9 212.9 -56.3 210.1C-76.7 207.3 -99.4 207.8 -112.7 195.2C-125.9 182.5 -129.6 156.6 -140.2 140.2C-150.8 123.9 -168.3 117.2 -181.9 105C-195.4 92.8 -205.1 75.1 -211.7 56.7C-218.3 38.3 -221.8 19.2 -225.3 0L0 0Z" fill="#9eafa2"></path><path d="M0 180.3C-14.4 175.3 -28.7 170.3 -45 168.1C-61.3 165.8 -79.5 166.3 -90.1 156.1C-100.7 146 -103.7 125.3 -112.2 112.2C-120.7 99.1 -134.6 93.8 -145.5 84C-156.3 74.2 -164.1 60.1 -169.4 45.4C-174.6 30.7 -177.5 15.3 -180.3 0L0 0Z" fill="#738e7a"></path><path d="M0 135.2C-10.8 131.5 -21.6 127.7 -33.8 126.1C-46 124.4 -59.7 124.7 -67.6 117.1C-75.6 109.5 -77.8 93.9 -84.1 84.1C-90.5 74.4 -101 70.3 -109.1 63C-117.3 55.7 -123.1 45.1 -127 34C-131 23 -133.1 11.5 -135.2 0L0 0Z" fill="#486d53"></path><path d="M0 90.1C-7.2 87.7 -14.4 85.2 -22.5 84C-30.7 82.9 -39.8 83.1 -45.1 78.1C-50.4 73 -51.9 62.6 -56.1 56.1C-60.3 49.6 -67.3 46.9 -72.7 42C-78.2 37.1 -82 30.1 -84.7 22.7C-87.3 15.3 -88.7 7.7 -90.1 0L0 0Z" fill="#1d4e2f"></path><path d="M0 45.1C-3.6 43.8 -7.2 42.6 -11.3 42C-15.3 41.5 -19.9 41.6 -22.5 39C-25.2 36.5 -25.9 31.3 -28 28C-30.2 24.8 -33.7 23.4 -36.4 21C-39.1 18.6 -41 15 -42.3 11.3C-43.7 7.7 -44.4 3.8 -45.1 0L0 0Z" fill="#003f1e"></path></g><g transform="translate(0, 600)"><path d="M0 -270.4C25.1 -271.4 50.3 -272.4 70 -261.2C89.7 -250 104.1 -226.5 122 -211.3C139.9 -196.1 161.4 -189.2 173.2 -173.2C185.1 -157.3 187.2 -132.3 195.7 -113C204.3 -93.7 219.3 -80.2 232.8 -62.4C246.3 -44.5 258.4 -22.3 270.4 0L0 0Z" fill="#ccd1cd"></path><path d="M0 -225.3C20.9 -226.2 41.9 -227 58.3 -217.7C74.8 -208.3 86.7 -188.8 101.7 -176.1C116.6 -163.4 134.5 -157.7 144.4 -144.4C154.2 -131.1 156 -110.2 163.1 -94.2C170.2 -78.1 182.7 -66.9 194 -52C205.3 -37.1 215.3 -18.5 225.3 0L0 0Z" fill="#9eafa2"></path><path d="M0 -180.3C16.8 -180.9 33.5 -181.6 46.7 -174.1C59.8 -166.6 69.4 -151 81.3 -140.9C93.3 -130.7 107.6 -126.1 115.5 -115.5C123.4 -104.9 124.8 -88.2 130.5 -75.3C136.2 -62.5 146.2 -53.5 155.2 -41.6C164.2 -29.7 172.2 -14.8 180.3 0L0 0Z" fill="#738e7a"></path><path d="M0 -135.2C12.6 -135.7 25.1 -136.2 35 -130.6C44.9 -125 52 -113.3 61 -105.7C70 -98.1 80.7 -94.6 86.6 -86.6C92.5 -78.6 93.6 -66.1 97.9 -56.5C102.1 -46.9 109.6 -40.1 116.4 -31.2C123.2 -22.3 129.2 -11.1 135.2 0L0 0Z" fill="#486d53"></path><path d="M0 -90.1C8.4 -90.5 16.8 -90.8 23.3 -87.1C29.9 -83.3 34.7 -75.5 40.7 -70.4C46.6 -65.4 53.8 -63.1 57.7 -57.7C61.7 -52.4 62.4 -44.1 65.2 -37.7C68.1 -31.2 73.1 -26.7 77.6 -20.8C82.1 -14.8 86.1 -7.4 90.1 0L0 0Z" fill="#1d4e2f"></path><path d="M0 -45.1C4.2 -45.2 8.4 -45.4 11.7 -43.5C15 -41.7 17.3 -37.8 20.3 -35.2C23.3 -32.7 26.9 -31.5 28.9 -28.9C30.8 -26.2 31.2 -22 32.6 -18.8C34 -15.6 36.5 -13.4 38.8 -10.4C41.1 -7.4 43.1 -3.7 45.1 0L0 0Z" fill="#003f1e"></path></g></svg>